 <svg xmlns="http://www.w3.org/2000/svg" width="512" height="512" viewBox="0 0 512 512"><g><path d="M357.823,122.177a7.971,7.971,0,0,0,5.657-2.344l5.657-5.657a8,8,0,1,0-11.313-11.313l-5.657,5.657a8,8,0,0,0,5.656,13.657Z"></path><path d="M148.52,312.167l-5.657,5.657a8,8,0,1,0,11.313,11.313l5.657-5.657a8,8,0,1,0-11.313-11.313Z"></path><path d="M363.48,312.167a8,8,0,1,0-11.313,11.313l5.657,5.657a8,8,0,0,0,11.313-11.313Z"></path><path d="M148.52,119.833a8,8,0,1,0,11.313-11.313l-5.657-5.657a8,8,0,1,0-11.313,11.313Z"></path><path d="M256,80a8,8,0,0,0,8-8V64a8,8,0,0,0-16,0v8A8,8,0,0,0,256,80Z"></path><path d="M480.94,216l22.22-44.42A8,8,0,0,0,496,160H416a8.011,8.011,0,0,0-7.16,4.42L395.06,192H381.54A128.024,128.024,0,0,0,256,89c-62.03,0-113.88,44.35-125.54,103H88V176a7.994,7.994,0,0,0-12.24-6.78l-64,40a7.993,7.993,0,0,0,0,13.56l64,40A7.994,7.994,0,0,0,88,256V240h42.1A128.29,128.29,0,0,0,208,335.69V360h-8a8,8,0,0,0-8,8v24a8,8,0,0,0,8,8h8v12a28.043,28.043,0,0,0,24,27.71V456a8,8,0,0,0,8,8h32a8,8,0,0,0,8-8V439.71A28.043,28.043,0,0,0,304,412V400h8a8,8,0,0,0,8-8V368a8,8,0,0,0-8-8h-8V335.69A128.117,128.117,0,0,0,381.92,240h13.14l13.78,27.58A8.011,8.011,0,0,0,416,272h80a8,8,0,0,0,7.16-11.58ZM72,241.57,31.09,216,72,190.43ZM128,224H88V208h40Zm16-7a112,112,0,0,1,221.18-25H340.66A88,88,0,1,0,232,300.67V360h-8V330.17a8,8,0,0,0-5.33-7.54A112.192,112.192,0,0,1,144,217Zm112,23h67.89a72,72,0,1,1,0-48H256a24,24,0,0,0,0,48Zm8,63.63V360H248V303.63c2.64.24,5.3.37,8,.37S261.36,303.87,264,303.63ZM264,448H248v-8h16Zm24-36a12.01,12.01,0,0,1-12,12H236a12.01,12.01,0,0,1-12-12V400h64Zm16-28H208v-8h96Zm38.97-96.43a112.1,112.1,0,0,1-49.64,35.06,8,8,0,0,0-5.33,7.54V360h-8V300.63A88.346,88.346,0,0,0,340.66,240h24.96A111.519,111.519,0,0,1,342.97,287.57Zm41.87-67.99,2.22,4.42H256a8,8,0,1,1,0-16H387.06l-2.22,4.42A8.049,8.049,0,0,0,384.84,219.58ZM420.94,176h62.12l-16,32H404.94Zm0,80-16-32h62.12l16,32Z"></path></g></svg>